<svg id="general-header-bg" xmlns="http://www.w3.org/2000/svg" width="1926.795" height="91.912" viewBox="0 0 1926.795 91.912">
  <g id="Group_12616" data-name="Group 12616">
    <g id="Group_12615" data-name="Group 12615" transform="translate(10.344)" opacity="0.5">
      <path id="Path_130402" data-name="Path 130402" d="M7.37,88.631V87.291a2.3,2.3,0,0,1,2.238-2.348h33.1a2.172,2.172,0,0,0,1.582-.678,2.392,2.392,0,0,0,.656-1.655V49.666a2.393,2.393,0,0,1,.646-1.659,2.173,2.173,0,0,1,1.578-.689H61.907a2.3,2.3,0,0,0,2.238-2.348V10.309A2.392,2.392,0,0,1,64.8,8.655a2.172,2.172,0,0,1,1.582-.678H78.451a2.172,2.172,0,0,1,1.582.678,2.392,2.392,0,0,1,.656,1.655V45.015a2.3,2.3,0,0,0,2.2,2.348h7.174A2.3,2.3,0,0,0,92.3,45.015V35.639a2.3,2.3,0,0,1,2.238-2.348h1.334a2.3,2.3,0,0,0,2.238-2.348V28.129a2.392,2.392,0,0,1,.656-1.655,2.172,2.172,0,0,1,1.582-.678h33.546a2.172,2.172,0,0,1,1.582.678,2.392,2.392,0,0,1,.656,1.655v2.814a2.393,2.393,0,0,0,.646,1.659,2.173,2.173,0,0,0,1.578.689H139.7a2.3,2.3,0,0,1,2.238,2.348v9.376a2.393,2.393,0,0,0,.646,1.659,2.173,2.173,0,0,0,1.578.689h17.892a2.173,2.173,0,0,0,1.578-.689,2.393,2.393,0,0,0,.646-1.659V21.07a2.3,2.3,0,0,1,2.238-2.348h7.174a2.3,2.3,0,0,1,2.224,2.348V45.015a2.393,2.393,0,0,0,.646,1.659,2.173,2.173,0,0,0,1.578.689h6.715a2.173,2.173,0,0,0,1.578-.689,2.393,2.393,0,0,0,.646-1.659V10.309a2.392,2.392,0,0,1,.657-1.655,2.172,2.172,0,0,1,1.582-.678h.445A2.3,2.3,0,0,0,192,5.629V4.7a2.3,2.3,0,0,1,2.238-2.348h33.976A2.3,2.3,0,0,1,230.455,4.7v.933a2.3,2.3,0,0,0,2.238,2.348h.445a2.158,2.158,0,0,1,1.577.679,2.377,2.377,0,0,1,.647,1.654V21.07a2.3,2.3,0,0,0,2.238,2.348h8.494a2.3,2.3,0,0,1,2.238,2.348V37.009a2.3,2.3,0,0,0,2.238,2.348h20.087A2.3,2.3,0,0,1,272.9,41.7v4.7a2.378,2.378,0,0,0,.647,1.685,2.157,2.157,0,0,0,1.606.678h33.087a2.172,2.172,0,0,0,1.582-.678,2.392,2.392,0,0,0,.656-1.655V21.386a2.3,2.3,0,0,1,2.238-2.348h10.718a2.172,2.172,0,0,0,1.582-.678,2.392,2.392,0,0,0,.656-1.655V13.425a2.3,2.3,0,0,1,2.238-2.348h3.2a2.3,2.3,0,0,1,2.238,2.348v3.281A2.392,2.392,0,0,0,334,18.361a2.172,2.172,0,0,0,1.582.678H346.3a2.3,2.3,0,0,1,2.238,2.348v5.343a2.3,2.3,0,0,0,2.238,2.348h8.049a2.3,2.3,0,0,1,2.238,2.348V38.95a2.393,2.393,0,0,0,.646,1.659,2.173,2.173,0,0,0,1.578.689H408a2.3,2.3,0,0,0,2.238-2.348V6.1a2.3,2.3,0,0,1,2.238-2.348h49.616A2.3,2.3,0,0,1,464.33,6.1V16.886a2.392,2.392,0,0,0,.656,1.655,2.172,2.172,0,0,0,1.582.678h32.556a2.3,2.3,0,0,1,2.238,2.348V30.01a2.3,2.3,0,0,0,2.238,2.348H517a2.3,2.3,0,0,0,2.238-2.348V7.028a2.391,2.391,0,0,1,.656-1.655,2.172,2.172,0,0,1,1.582-.678h2.683A2.3,2.3,0,0,0,526.4,2.348h0A2.3,2.3,0,0,1,528.638,0H540.26a2.173,2.173,0,0,1,1.578.689,2.392,2.392,0,0,1,.646,1.659h0A2.3,2.3,0,0,0,544.722,4.7h1.794a2.172,2.172,0,0,1,1.582.678,2.391,2.391,0,0,1,.656,1.655V30.01a2.393,2.393,0,0,0,.646,1.659,2.173,2.173,0,0,0,1.578.689h13.86a2.3,2.3,0,0,1,2.238,2.348V46.9a2.3,2.3,0,0,0,2.21,2.348h13.86a2.173,2.173,0,0,0,1.578-.689,2.393,2.393,0,0,0,.646-1.659V44.082a2.3,2.3,0,0,1,2.238-2.348h6.256a2.3,2.3,0,0,1,2.238,2.348V57.191a2.3,2.3,0,0,0,2.238,2.348h17.433a2.183,2.183,0,0,1,1.625.671,2.407,2.407,0,0,1,.671,1.692V80.654A2.3,2.3,0,0,0,620.309,83h11.622a2.3,2.3,0,0,1,2.238,2.348v4.214a2.3,2.3,0,0,1-2.238,2.348H9.608A2.3,2.3,0,0,1,7.37,89.564Z" transform="translate(-7.37 0)" fill="#00afaa"/>
    </g>
    <path id="Path_130403" data-name="Path 130403" d="M635.034,88.557H1.434A1.479,1.479,0,0,1,0,87.037V77.306a1.479,1.479,0,0,1,1.434-1.52H21.94a1.485,1.485,0,0,0,1.362-1.52V67.271a1.485,1.485,0,0,1,1.362-1.52H39.147a1.479,1.479,0,0,0,1.362-1.444V36.862a1.479,1.479,0,0,1,1.362-1.444H53.444a1.479,1.479,0,0,1,1.362,1.444V64.23a1.474,1.474,0,0,0,1.434,1.444h13.35a1.474,1.474,0,0,0,1.434-1.444V52.69a1.479,1.479,0,0,1,1.434-1.52h.473a1.306,1.306,0,0,0,1.042-.415,1.479,1.479,0,0,0,.392-1.1v-.593a1.479,1.479,0,0,1,1.434-1.52H93.208a1.479,1.479,0,0,1,1.434,1.52v.593a1.479,1.479,0,0,0,1.434,1.52h0a1.485,1.485,0,0,1,1.362,1.52V64a1.474,1.474,0,0,0,1.434,1.444H102.4A1.474,1.474,0,0,0,103.834,64V45.574A1.479,1.479,0,0,1,105.2,44.13h7.543a1.474,1.474,0,0,1,1.434,1.444v19.37a1.479,1.479,0,0,0,.392,1.1,1.306,1.306,0,0,0,1.042.415h.387a1.479,1.479,0,0,0,1.434-1.52V60.733a1.479,1.479,0,0,1,1.434-1.52h6.654a1.485,1.485,0,0,0,1.362-1.52V48.418a1.479,1.479,0,0,1,1.434-1.52h11.128a1.479,1.479,0,0,1,1.434,1.52V62.573a1.479,1.479,0,0,0,1.434,1.52h12.017a1.479,1.479,0,0,0,1.434-1.52V30.887a1.479,1.479,0,0,1,1.362-1.444H162A1.474,1.474,0,0,0,163.43,28V26.219a1.473,1.473,0,0,1,.419-1.054,1.3,1.3,0,0,1,1.015-.39h36.581a1.474,1.474,0,0,1,1.434,1.444v3.193a1.479,1.479,0,0,0,1.434,1.52h3.069a1.479,1.479,0,0,1,1.434,1.52v32.02a1.481,1.481,0,0,0,.368,1.076,1.312,1.312,0,0,0,.994.445h5.306a1.312,1.312,0,0,0,.994-.445,1.481,1.481,0,0,0,.368-1.076V58.848a1.479,1.479,0,0,1,1.434-1.52h4.861a1.479,1.479,0,0,1,1.434,1.52v5.626a1.485,1.485,0,0,0,1.362,1.52h5.32a1.485,1.485,0,0,0,1.362-1.52v-9.9a1.474,1.474,0,0,1,1.434-1.444H247.79a1.479,1.479,0,0,1,1.362,1.444V68.792a1.485,1.485,0,0,0,1.362,1.52h14.77a1.479,1.479,0,0,0,1.434-1.52V12.885a1.479,1.479,0,0,1,1.434-1.52h2.624a1.309,1.309,0,0,0,.968-.419,1.475,1.475,0,0,0,.395-1.026V9.57a1.479,1.479,0,0,1,1.434-1.52h5.736a1.485,1.485,0,0,1,1.362,1.52v.9a1.479,1.479,0,0,0,1.362,1.444h1.893a1.479,1.479,0,0,1,1.434,1.52V57.373a1.479,1.479,0,0,0,1.362,1.444h15.128a1.479,1.479,0,0,0,1.362-1.444V33.73a1.479,1.479,0,0,1,1.434-1.52h15.128a1.479,1.479,0,0,1,1.434,1.52V47.414a1.479,1.479,0,0,0,1.434,1.52h37.929a1.479,1.479,0,0,1,1.434,1.52V65.082a1.481,1.481,0,0,0,.368,1.076,1.312,1.312,0,0,0,.994.445h15.143a1.479,1.479,0,0,0,1.434-1.52V25.2a1.479,1.479,0,0,1,1.362-1.444h17.824a1.479,1.479,0,0,1,1.362,1.444V55.944a1.479,1.479,0,0,0,1.434,1.52h11.558a1.485,1.485,0,0,1,1.362,1.52V65.9a1.474,1.474,0,0,0,1.434,1.444h11.558A1.479,1.479,0,0,0,429.2,65.9V60.262a1.479,1.479,0,0,1,1.434-1.52h3.857a1.479,1.479,0,0,0,1.362-1.444V37.531a1.485,1.485,0,0,1,1.362-1.52h5.736a1.474,1.474,0,0,0,1.434-1.444V31.374a1.485,1.485,0,0,1,1.362-1.52h34.415a1.485,1.485,0,0,1,1.362,1.52v3.254a1.474,1.474,0,0,0,1.434,1.444h5.32a1.485,1.485,0,0,1,1.362,1.52V60.216a1.485,1.485,0,0,0,1.362,1.52h4.417a1.309,1.309,0,0,1,.967.419,1.474,1.474,0,0,1,.395,1.026v4.683a1.479,1.479,0,0,0,1.362,1.444h6.209a1.309,1.309,0,0,0,.968-.419,1.475,1.475,0,0,0,.395-1.026V52.69a1.479,1.479,0,0,1,1.434-1.52h37.756a1.485,1.485,0,0,1,1.362,1.52v6.979a1.485,1.485,0,0,0,1.362,1.52H580.2a1.312,1.312,0,0,1,.994.445,1.481,1.481,0,0,1,.368,1.076v9.9a1.479,1.479,0,0,0,1.362,1.444h16.935a1.479,1.479,0,0,0,1.362-1.444V68.32a1.474,1.474,0,0,1,1.434-1.444h8.891a1.309,1.309,0,0,1,.968.419,1.475,1.475,0,0,1,.395,1.026v4.212a1.479,1.479,0,0,0,1.362,1.444h12.017a1.485,1.485,0,0,1,1.362,1.52v5.641a1.479,1.479,0,0,0,1.434,1.52h13.35A1.479,1.479,0,0,1,643.8,84.1v3.041a1.485,1.485,0,0,1-1.362,1.52Z" transform="translate(0 3.248)" fill="#00a09c"/>
  </g>
  <g id="Group_12617" data-name="Group 12617" transform="translate(644)">
    <g id="Group_12615-2" data-name="Group 12615" transform="translate(10.344)" opacity="0.5">
      <path id="Path_130402-2" data-name="Path 130402" d="M7.37,88.631V87.291a2.3,2.3,0,0,1,2.238-2.348h33.1a2.172,2.172,0,0,0,1.582-.678,2.392,2.392,0,0,0,.656-1.655V49.666a2.393,2.393,0,0,1,.646-1.659,2.173,2.173,0,0,1,1.578-.689H61.907a2.3,2.3,0,0,0,2.238-2.348V10.309A2.392,2.392,0,0,1,64.8,8.655a2.172,2.172,0,0,1,1.582-.678H78.451a2.172,2.172,0,0,1,1.582.678,2.392,2.392,0,0,1,.656,1.655V45.015a2.3,2.3,0,0,0,2.2,2.348h7.174A2.3,2.3,0,0,0,92.3,45.015V35.639a2.3,2.3,0,0,1,2.238-2.348h1.334a2.3,2.3,0,0,0,2.238-2.348V28.129a2.392,2.392,0,0,1,.656-1.655,2.172,2.172,0,0,1,1.582-.678h33.546a2.172,2.172,0,0,1,1.582.678,2.392,2.392,0,0,1,.656,1.655v2.814a2.393,2.393,0,0,0,.646,1.659,2.173,2.173,0,0,0,1.578.689H139.7a2.3,2.3,0,0,1,2.238,2.348v9.376a2.393,2.393,0,0,0,.646,1.659,2.173,2.173,0,0,0,1.578.689h17.892a2.173,2.173,0,0,0,1.578-.689,2.393,2.393,0,0,0,.646-1.659V21.07a2.3,2.3,0,0,1,2.238-2.348h7.174a2.3,2.3,0,0,1,2.224,2.348V45.015a2.393,2.393,0,0,0,.646,1.659,2.173,2.173,0,0,0,1.578.689h6.715a2.173,2.173,0,0,0,1.578-.689,2.393,2.393,0,0,0,.646-1.659V10.309a2.392,2.392,0,0,1,.657-1.655,2.172,2.172,0,0,1,1.582-.678h.445A2.3,2.3,0,0,0,192,5.629V4.7a2.3,2.3,0,0,1,2.238-2.348h33.976A2.3,2.3,0,0,1,230.455,4.7v.933a2.3,2.3,0,0,0,2.238,2.348h.445a2.158,2.158,0,0,1,1.577.679,2.377,2.377,0,0,1,.647,1.654V21.07a2.3,2.3,0,0,0,2.238,2.348h8.494a2.3,2.3,0,0,1,2.238,2.348V37.009a2.3,2.3,0,0,0,2.238,2.348h20.087A2.3,2.3,0,0,1,272.9,41.7v4.7a2.378,2.378,0,0,0,.647,1.685,2.157,2.157,0,0,0,1.606.678h33.087a2.172,2.172,0,0,0,1.582-.678,2.392,2.392,0,0,0,.656-1.655V21.386a2.3,2.3,0,0,1,2.238-2.348h10.718a2.172,2.172,0,0,0,1.582-.678,2.392,2.392,0,0,0,.656-1.655V13.425a2.3,2.3,0,0,1,2.238-2.348h3.2a2.3,2.3,0,0,1,2.238,2.348v3.281A2.392,2.392,0,0,0,334,18.361a2.172,2.172,0,0,0,1.582.678H346.3a2.3,2.3,0,0,1,2.238,2.348v5.343a2.3,2.3,0,0,0,2.238,2.348h8.049a2.3,2.3,0,0,1,2.238,2.348V38.95a2.393,2.393,0,0,0,.646,1.659,2.173,2.173,0,0,0,1.578.689H408a2.3,2.3,0,0,0,2.238-2.348V6.1a2.3,2.3,0,0,1,2.238-2.348h49.616A2.3,2.3,0,0,1,464.33,6.1V16.886a2.392,2.392,0,0,0,.656,1.655,2.172,2.172,0,0,0,1.582.678h32.556a2.3,2.3,0,0,1,2.238,2.348V30.01a2.3,2.3,0,0,0,2.238,2.348H517a2.3,2.3,0,0,0,2.238-2.348V7.028a2.391,2.391,0,0,1,.656-1.655,2.172,2.172,0,0,1,1.582-.678h2.683A2.3,2.3,0,0,0,526.4,2.348h0A2.3,2.3,0,0,1,528.638,0H540.26a2.173,2.173,0,0,1,1.578.689,2.392,2.392,0,0,1,.646,1.659h0A2.3,2.3,0,0,0,544.722,4.7h1.794a2.172,2.172,0,0,1,1.582.678,2.391,2.391,0,0,1,.656,1.655V30.01a2.393,2.393,0,0,0,.646,1.659,2.173,2.173,0,0,0,1.578.689h13.86a2.3,2.3,0,0,1,2.238,2.348V46.9a2.3,2.3,0,0,0,2.21,2.348h13.86a2.173,2.173,0,0,0,1.578-.689,2.393,2.393,0,0,0,.646-1.659V44.082a2.3,2.3,0,0,1,2.238-2.348h6.256a2.3,2.3,0,0,1,2.238,2.348V57.191a2.3,2.3,0,0,0,2.238,2.348h17.433a2.183,2.183,0,0,1,1.625.671,2.407,2.407,0,0,1,.671,1.692V80.654A2.3,2.3,0,0,0,620.309,83h11.622a2.3,2.3,0,0,1,2.238,2.348v4.214a2.3,2.3,0,0,1-2.238,2.348H9.608A2.3,2.3,0,0,1,7.37,89.564Z" transform="translate(-7.37 0)" fill="#00afaa"/>
    </g>
    <path id="Path_130403-2" data-name="Path 130403" d="M635.034,88.557H1.434A1.479,1.479,0,0,1,0,87.037V77.306a1.479,1.479,0,0,1,1.434-1.52H21.94a1.485,1.485,0,0,0,1.362-1.52V67.271a1.485,1.485,0,0,1,1.362-1.52H39.147a1.479,1.479,0,0,0,1.362-1.444V36.862a1.479,1.479,0,0,1,1.362-1.444H53.444a1.479,1.479,0,0,1,1.362,1.444V64.23a1.474,1.474,0,0,0,1.434,1.444h13.35a1.474,1.474,0,0,0,1.434-1.444V52.69a1.479,1.479,0,0,1,1.434-1.52h.473a1.306,1.306,0,0,0,1.042-.415,1.479,1.479,0,0,0,.392-1.1v-.593a1.479,1.479,0,0,1,1.434-1.52H93.208a1.479,1.479,0,0,1,1.434,1.52v.593a1.479,1.479,0,0,0,1.434,1.52h0a1.485,1.485,0,0,1,1.362,1.52V64a1.474,1.474,0,0,0,1.434,1.444H102.4A1.474,1.474,0,0,0,103.834,64V45.574A1.479,1.479,0,0,1,105.2,44.13h7.543a1.474,1.474,0,0,1,1.434,1.444v19.37a1.479,1.479,0,0,0,.392,1.1,1.306,1.306,0,0,0,1.042.415h.387a1.479,1.479,0,0,0,1.434-1.52V60.733a1.479,1.479,0,0,1,1.434-1.52h6.654a1.485,1.485,0,0,0,1.362-1.52V48.418a1.479,1.479,0,0,1,1.434-1.52h11.128a1.479,1.479,0,0,1,1.434,1.52V62.573a1.479,1.479,0,0,0,1.434,1.52h12.017a1.479,1.479,0,0,0,1.434-1.52V30.887a1.479,1.479,0,0,1,1.362-1.444H162A1.474,1.474,0,0,0,163.43,28V26.219a1.473,1.473,0,0,1,.419-1.054,1.3,1.3,0,0,1,1.015-.39h36.581a1.474,1.474,0,0,1,1.434,1.444v3.193a1.479,1.479,0,0,0,1.434,1.52h3.069a1.479,1.479,0,0,1,1.434,1.52v32.02a1.481,1.481,0,0,0,.368,1.076,1.312,1.312,0,0,0,.994.445h5.306a1.312,1.312,0,0,0,.994-.445,1.481,1.481,0,0,0,.368-1.076V58.848a1.479,1.479,0,0,1,1.434-1.52h4.861a1.479,1.479,0,0,1,1.434,1.52v5.626a1.485,1.485,0,0,0,1.362,1.52h5.32a1.485,1.485,0,0,0,1.362-1.52v-9.9a1.474,1.474,0,0,1,1.434-1.444H247.79a1.479,1.479,0,0,1,1.362,1.444V68.792a1.485,1.485,0,0,0,1.362,1.52h14.77a1.479,1.479,0,0,0,1.434-1.52V12.885a1.479,1.479,0,0,1,1.434-1.52h2.624a1.309,1.309,0,0,0,.968-.419,1.475,1.475,0,0,0,.395-1.026V9.57a1.479,1.479,0,0,1,1.434-1.52h5.736a1.485,1.485,0,0,1,1.362,1.52v.9a1.479,1.479,0,0,0,1.362,1.444h1.893a1.479,1.479,0,0,1,1.434,1.52V57.373a1.479,1.479,0,0,0,1.362,1.444h15.128a1.479,1.479,0,0,0,1.362-1.444V33.73a1.479,1.479,0,0,1,1.434-1.52h15.128a1.479,1.479,0,0,1,1.434,1.52V47.414a1.479,1.479,0,0,0,1.434,1.52h37.929a1.479,1.479,0,0,1,1.434,1.52V65.082a1.481,1.481,0,0,0,.368,1.076,1.312,1.312,0,0,0,.994.445h15.143a1.479,1.479,0,0,0,1.434-1.52V25.2a1.479,1.479,0,0,1,1.362-1.444h17.824a1.479,1.479,0,0,1,1.362,1.444V55.944a1.479,1.479,0,0,0,1.434,1.52h11.558a1.485,1.485,0,0,1,1.362,1.52V65.9a1.474,1.474,0,0,0,1.434,1.444h11.558A1.479,1.479,0,0,0,429.2,65.9V60.262a1.479,1.479,0,0,1,1.434-1.52h3.857a1.479,1.479,0,0,0,1.362-1.444V37.531a1.485,1.485,0,0,1,1.362-1.52h5.736a1.474,1.474,0,0,0,1.434-1.444V31.374a1.485,1.485,0,0,1,1.362-1.52h34.415a1.485,1.485,0,0,1,1.362,1.52v3.254a1.474,1.474,0,0,0,1.434,1.444h5.32a1.485,1.485,0,0,1,1.362,1.52V60.216a1.485,1.485,0,0,0,1.362,1.52h4.417a1.309,1.309,0,0,1,.967.419,1.474,1.474,0,0,1,.395,1.026v4.683a1.479,1.479,0,0,0,1.362,1.444h6.209a1.309,1.309,0,0,0,.968-.419,1.475,1.475,0,0,0,.395-1.026V52.69a1.479,1.479,0,0,1,1.434-1.52h37.756a1.485,1.485,0,0,1,1.362,1.52v6.979a1.485,1.485,0,0,0,1.362,1.52H580.2a1.312,1.312,0,0,1,.994.445,1.481,1.481,0,0,1,.368,1.076v9.9a1.479,1.479,0,0,0,1.362,1.444h16.935a1.479,1.479,0,0,0,1.362-1.444V68.32a1.474,1.474,0,0,1,1.434-1.444h8.891a1.309,1.309,0,0,1,.968.419,1.475,1.475,0,0,1,.395,1.026v4.212a1.479,1.479,0,0,0,1.362,1.444h12.017a1.485,1.485,0,0,1,1.362,1.52v5.641a1.479,1.479,0,0,0,1.434,1.52h13.35A1.479,1.479,0,0,1,643.8,84.1v3.041a1.485,1.485,0,0,1-1.362,1.52Z" transform="translate(0 3.248)" fill="#00a09c"/>
  </g>
  <g id="Group_12618" data-name="Group 12618" transform="translate(1283)">
    <g id="Group_12615-3" data-name="Group 12615" transform="translate(10.344)" opacity="0.5">
      <path id="Path_130402-3" data-name="Path 130402" d="M7.37,88.631V87.291a2.3,2.3,0,0,1,2.238-2.348h33.1a2.172,2.172,0,0,0,1.582-.678,2.392,2.392,0,0,0,.656-1.655V49.666a2.393,2.393,0,0,1,.646-1.659,2.173,2.173,0,0,1,1.578-.689H61.907a2.3,2.3,0,0,0,2.238-2.348V10.309A2.392,2.392,0,0,1,64.8,8.655a2.172,2.172,0,0,1,1.582-.678H78.451a2.172,2.172,0,0,1,1.582.678,2.392,2.392,0,0,1,.656,1.655V45.015a2.3,2.3,0,0,0,2.2,2.348h7.174A2.3,2.3,0,0,0,92.3,45.015V35.639a2.3,2.3,0,0,1,2.238-2.348h1.334a2.3,2.3,0,0,0,2.238-2.348V28.129a2.392,2.392,0,0,1,.656-1.655,2.172,2.172,0,0,1,1.582-.678h33.546a2.172,2.172,0,0,1,1.582.678,2.392,2.392,0,0,1,.656,1.655v2.814a2.393,2.393,0,0,0,.646,1.659,2.173,2.173,0,0,0,1.578.689H139.7a2.3,2.3,0,0,1,2.238,2.348v9.376a2.393,2.393,0,0,0,.646,1.659,2.173,2.173,0,0,0,1.578.689h17.892a2.173,2.173,0,0,0,1.578-.689,2.393,2.393,0,0,0,.646-1.659V21.07a2.3,2.3,0,0,1,2.238-2.348h7.174a2.3,2.3,0,0,1,2.224,2.348V45.015a2.393,2.393,0,0,0,.646,1.659,2.173,2.173,0,0,0,1.578.689h6.715a2.173,2.173,0,0,0,1.578-.689,2.393,2.393,0,0,0,.646-1.659V10.309a2.392,2.392,0,0,1,.657-1.655,2.172,2.172,0,0,1,1.582-.678h.445A2.3,2.3,0,0,0,192,5.629V4.7a2.3,2.3,0,0,1,2.238-2.348h33.976A2.3,2.3,0,0,1,230.455,4.7v.933a2.3,2.3,0,0,0,2.238,2.348h.445a2.158,2.158,0,0,1,1.577.679,2.377,2.377,0,0,1,.647,1.654V21.07a2.3,2.3,0,0,0,2.238,2.348h8.494a2.3,2.3,0,0,1,2.238,2.348V37.009a2.3,2.3,0,0,0,2.238,2.348h20.087A2.3,2.3,0,0,1,272.9,41.7v4.7a2.378,2.378,0,0,0,.647,1.685,2.157,2.157,0,0,0,1.606.678h33.087a2.172,2.172,0,0,0,1.582-.678,2.392,2.392,0,0,0,.656-1.655V21.386a2.3,2.3,0,0,1,2.238-2.348h10.718a2.172,2.172,0,0,0,1.582-.678,2.392,2.392,0,0,0,.656-1.655V13.425a2.3,2.3,0,0,1,2.238-2.348h3.2a2.3,2.3,0,0,1,2.238,2.348v3.281A2.392,2.392,0,0,0,334,18.361a2.172,2.172,0,0,0,1.582.678H346.3a2.3,2.3,0,0,1,2.238,2.348v5.343a2.3,2.3,0,0,0,2.238,2.348h8.049a2.3,2.3,0,0,1,2.238,2.348V38.95a2.393,2.393,0,0,0,.646,1.659,2.173,2.173,0,0,0,1.578.689H408a2.3,2.3,0,0,0,2.238-2.348V6.1a2.3,2.3,0,0,1,2.238-2.348h49.616A2.3,2.3,0,0,1,464.33,6.1V16.886a2.392,2.392,0,0,0,.656,1.655,2.172,2.172,0,0,0,1.582.678h32.556a2.3,2.3,0,0,1,2.238,2.348V30.01a2.3,2.3,0,0,0,2.238,2.348H517a2.3,2.3,0,0,0,2.238-2.348V7.028a2.391,2.391,0,0,1,.656-1.655,2.172,2.172,0,0,1,1.582-.678h2.683A2.3,2.3,0,0,0,526.4,2.348h0A2.3,2.3,0,0,1,528.638,0H540.26a2.173,2.173,0,0,1,1.578.689,2.392,2.392,0,0,1,.646,1.659h0A2.3,2.3,0,0,0,544.722,4.7h1.794a2.172,2.172,0,0,1,1.582.678,2.391,2.391,0,0,1,.656,1.655V30.01a2.393,2.393,0,0,0,.646,1.659,2.173,2.173,0,0,0,1.578.689h13.86a2.3,2.3,0,0,1,2.238,2.348V46.9a2.3,2.3,0,0,0,2.21,2.348h13.86a2.173,2.173,0,0,0,1.578-.689,2.393,2.393,0,0,0,.646-1.659V44.082a2.3,2.3,0,0,1,2.238-2.348h6.256a2.3,2.3,0,0,1,2.238,2.348V57.191a2.3,2.3,0,0,0,2.238,2.348h17.433a2.183,2.183,0,0,1,1.625.671,2.407,2.407,0,0,1,.671,1.692V80.654A2.3,2.3,0,0,0,620.309,83h11.622a2.3,2.3,0,0,1,2.238,2.348v4.214a2.3,2.3,0,0,1-2.238,2.348H9.608A2.3,2.3,0,0,1,7.37,89.564Z" transform="translate(-7.37 0)" fill="#00afaa"/>
    </g>
    <path id="Path_130403-3" data-name="Path 130403" d="M635.034,88.557H1.434A1.479,1.479,0,0,1,0,87.037V77.306a1.479,1.479,0,0,1,1.434-1.52H21.94a1.485,1.485,0,0,0,1.362-1.52V67.271a1.485,1.485,0,0,1,1.362-1.52H39.147a1.479,1.479,0,0,0,1.362-1.444V36.862a1.479,1.479,0,0,1,1.362-1.444H53.444a1.479,1.479,0,0,1,1.362,1.444V64.23a1.474,1.474,0,0,0,1.434,1.444h13.35a1.474,1.474,0,0,0,1.434-1.444V52.69a1.479,1.479,0,0,1,1.434-1.52h.473a1.306,1.306,0,0,0,1.042-.415,1.479,1.479,0,0,0,.392-1.1v-.593a1.479,1.479,0,0,1,1.434-1.52H93.208a1.479,1.479,0,0,1,1.434,1.52v.593a1.479,1.479,0,0,0,1.434,1.52h0a1.485,1.485,0,0,1,1.362,1.52V64a1.474,1.474,0,0,0,1.434,1.444H102.4A1.474,1.474,0,0,0,103.834,64V45.574A1.479,1.479,0,0,1,105.2,44.13h7.543a1.474,1.474,0,0,1,1.434,1.444v19.37a1.479,1.479,0,0,0,.392,1.1,1.306,1.306,0,0,0,1.042.415h.387a1.479,1.479,0,0,0,1.434-1.52V60.733a1.479,1.479,0,0,1,1.434-1.52h6.654a1.485,1.485,0,0,0,1.362-1.52V48.418a1.479,1.479,0,0,1,1.434-1.52h11.128a1.479,1.479,0,0,1,1.434,1.52V62.573a1.479,1.479,0,0,0,1.434,1.52h12.017a1.479,1.479,0,0,0,1.434-1.52V30.887a1.479,1.479,0,0,1,1.362-1.444H162A1.474,1.474,0,0,0,163.43,28V26.219a1.473,1.473,0,0,1,.419-1.054,1.3,1.3,0,0,1,1.015-.39h36.581a1.474,1.474,0,0,1,1.434,1.444v3.193a1.479,1.479,0,0,0,1.434,1.52h3.069a1.479,1.479,0,0,1,1.434,1.52v32.02a1.481,1.481,0,0,0,.368,1.076,1.312,1.312,0,0,0,.994.445h5.306a1.312,1.312,0,0,0,.994-.445,1.481,1.481,0,0,0,.368-1.076V58.848a1.479,1.479,0,0,1,1.434-1.52h4.861a1.479,1.479,0,0,1,1.434,1.52v5.626a1.485,1.485,0,0,0,1.362,1.52h5.32a1.485,1.485,0,0,0,1.362-1.52v-9.9a1.474,1.474,0,0,1,1.434-1.444H247.79a1.479,1.479,0,0,1,1.362,1.444V68.792a1.485,1.485,0,0,0,1.362,1.52h14.77a1.479,1.479,0,0,0,1.434-1.52V12.885a1.479,1.479,0,0,1,1.434-1.52h2.624a1.309,1.309,0,0,0,.968-.419,1.475,1.475,0,0,0,.395-1.026V9.57a1.479,1.479,0,0,1,1.434-1.52h5.736a1.485,1.485,0,0,1,1.362,1.52v.9a1.479,1.479,0,0,0,1.362,1.444h1.893a1.479,1.479,0,0,1,1.434,1.52V57.373a1.479,1.479,0,0,0,1.362,1.444h15.128a1.479,1.479,0,0,0,1.362-1.444V33.73a1.479,1.479,0,0,1,1.434-1.52h15.128a1.479,1.479,0,0,1,1.434,1.52V47.414a1.479,1.479,0,0,0,1.434,1.52h37.929a1.479,1.479,0,0,1,1.434,1.52V65.082a1.481,1.481,0,0,0,.368,1.076,1.312,1.312,0,0,0,.994.445h15.143a1.479,1.479,0,0,0,1.434-1.52V25.2a1.479,1.479,0,0,1,1.362-1.444h17.824a1.479,1.479,0,0,1,1.362,1.444V55.944a1.479,1.479,0,0,0,1.434,1.52h11.558a1.485,1.485,0,0,1,1.362,1.52V65.9a1.474,1.474,0,0,0,1.434,1.444h11.558A1.479,1.479,0,0,0,429.2,65.9V60.262a1.479,1.479,0,0,1,1.434-1.52h3.857a1.479,1.479,0,0,0,1.362-1.444V37.531a1.485,1.485,0,0,1,1.362-1.52h5.736a1.474,1.474,0,0,0,1.434-1.444V31.374a1.485,1.485,0,0,1,1.362-1.52h34.415a1.485,1.485,0,0,1,1.362,1.52v3.254a1.474,1.474,0,0,0,1.434,1.444h5.32a1.485,1.485,0,0,1,1.362,1.52V60.216a1.485,1.485,0,0,0,1.362,1.52h4.417a1.309,1.309,0,0,1,.967.419,1.474,1.474,0,0,1,.395,1.026v4.683a1.479,1.479,0,0,0,1.362,1.444h6.209a1.309,1.309,0,0,0,.968-.419,1.475,1.475,0,0,0,.395-1.026V52.69a1.479,1.479,0,0,1,1.434-1.52h37.756a1.485,1.485,0,0,1,1.362,1.52v6.979a1.485,1.485,0,0,0,1.362,1.52H580.2a1.312,1.312,0,0,1,.994.445,1.481,1.481,0,0,1,.368,1.076v9.9a1.479,1.479,0,0,0,1.362,1.444h16.935a1.479,1.479,0,0,0,1.362-1.444V68.32a1.474,1.474,0,0,1,1.434-1.444h8.891a1.309,1.309,0,0,1,.968.419,1.475,1.475,0,0,1,.395,1.026v4.212a1.479,1.479,0,0,0,1.362,1.444h12.017a1.485,1.485,0,0,1,1.362,1.52v5.641a1.479,1.479,0,0,0,1.434,1.52h13.35A1.479,1.479,0,0,1,643.8,84.1v3.041a1.485,1.485,0,0,1-1.362,1.52Z" transform="translate(0 3.248)" fill="#00a09c"/>
  </g>
</svg>
